<svg id="Layer_1" data-name="Layer 1" xmlns="http://www.w3.org/2000/svg" viewBox="0 0 504.8 504.8"><title>logo</title><circle cx="252.4" cy="252.4" r="252.4" style="fill:#182844"/><path d="M263.4,280.9l68.3,68.3a12.61,12.61,0,0,0,17.8,0l68.3-68.3a15.45,15.45,0,0,0,0-21.8L263.4,104.6a15.45,15.45,0,0,0-21.8,0L87.1,259a15.45,15.45,0,0,0,0,21.8l68.3,68.3a12.61,12.61,0,0,0,17.8,0l68.3-68.3A15.48,15.48,0,0,1,263.4,280.9Z" style="fill:#fff"/><path d="M242.1,272.1l-44.9-44.9a13.1,13.1,0,0,0-18.5,0l-46,46a13.1,13.1,0,0,0,0,18.5L241.2,400.2a16,16,0,0,0,22.7,0L372.4,291.7a13.1,13.1,0,0,0,0-18.5l-46-46a13.1,13.1,0,0,0-18.5,0L263,272.1A14.91,14.91,0,0,1,242.1,272.1Z" style="fill:#3c3c3b;stroke:#3c3c3b;stroke-miterlimit:10;stroke-width:1.4005999565124512px"/></svg>