<?xml version="1.0" encoding="utf-8"?>
<!-- Generator: Adobe Illustrator 21.0.0, SVG Export Plug-In . SVG Version: 6.00 Build 0)  -->
<svg version="1.1" id="Layer_1" xmlns="http://www.w3.org/2000/svg" xmlns:xlink="http://www.w3.org/1999/xlink" x="0px" y="0px"
	 viewBox="0 0 1372.6 350" style="enable-background:new 0 0 1372.6 350;" xml:space="preserve">
<style type="text/css">
	.st0{opacity:0.82;fill:#500F5E;enable-background:new    ;}
	.st1{opacity:0.82;fill:#0E0E21;enable-background:new    ;}
</style>
<title>waves</title>
<path class="st0" d="M0,175.1c0,0,16,25,40.2,25c49.8,0,49.6-75,80.3-75s40.2,100,120.5,100s120.4-125,240.9-125
	s130.7,171.3,247.4,158.1c16.2-1.8,47.9-10.9,62.9-17.2c20.6-8.7,60.4-35.3,60.3-66c-0.1-32.7-39.1-57.6-59.7-66
	c-15.3-6.2-47.2-15.4-63.6-17.2C612.5,78.7,602.4,250,481.9,250S321.3,125,241,125s-89.8,100-120.4,100s-30.4-75-80.3-75
	C16.1,150,0,175.1,0,175.1"/>
<path class="st0" d="M1372.6,175.1c0,0-16,25-40.2,25c-49.8,0-49.6-75-80.3-75s-40.2,100-120.4,100s-120.5-125-240.9-125
	S760.1,271.4,643.4,258.3c-16.3-1.8-47.9-10.9-62.9-17.3c-20.6-8.7-60.4-35.3-60.3-66c0.1-32.7,39.1-57.6,59.7-66
	c15.3-6.2,47.2-15.4,63.6-17.2C760.1,78.7,770.2,250,890.6,250s160.6-125,240.9-125s89.8,100,120.4,100s30.4-75,80.3-75
	C1356.5,150,1372.6,175.1,1372.6,175.1"/>
<path class="st1" d="M780,175c0-25-60-125-139.9-125c-59.7,0-80,100-160,100s-80-25.1-160-25s-134,44-200,44
	c-61.7,0-120-68.9-120-169v350c0-100.1,58.3-169,120-169c66,0,120,43.9,200,44s80-25,160-25s100.3,100,160,100
	C720,300,780,200,780,175z"/>
<path class="st1" d="M592.5,175.1c0-25,60-125,139.9-125c59.7,0,80,100,160,100s80-25.1,160-25s134,44,200,44
	c61.7,0,120-68.9,120-169v350c0-100.1-58.3-169-120-169c-66,0-120,43.9-200,44s-80-25-160-25s-100.3,100-160,100
	C652.5,300,592.5,200,592.5,175.1L592.5,175.1z"/>
</svg>
