<svg id="Layer_1" data-name="Layer 1" xmlns="http://www.w3.org/2000/svg" viewBox="0 0 605 462.69"><title>Build Ideas-bbb</title><rect x="45.36" y="156.52" width="315.73" height="181.37" style="fill:#58595b"/><path d="M248.24,376.22h-91.6s-.48,44.37-10.13,51.59H258.36C248.72,420.59,248.24,376.22,248.24,376.22Z" style="fill:#f4f4f4"/><path d="M258.36,427.81H146.51c-9.64,7.23-23.62,13,10.13,13h91.6C282,440.83,268,435,258.36,427.81Z" style="fill:#e6e7e8"/><path d="M52,171.42H354.45a0,0,0,0,1,0,0v180a2.91,2.91,0,0,1-2.91,2.91H54.89A2.91,2.91,0,0,1,52,351.44v-180A0,0,0,0,1,52,171.42Z" style="fill:#446893"/><path d="M54.89,161.83H351.54a2.91,2.91,0,0,1,2.91,2.91v6.68a0,0,0,0,1,0,0H52a0,0,0,0,1,0,0v-6.68A2.91,2.91,0,0,1,54.89,161.83Z" style="fill:#e0dede"/><ellipse cx="58.52" cy="166.77" rx="1.55" ry="1.52" style="fill:#393e46"/><ellipse cx="65.34" cy="166.77" rx="1.55" ry="1.52" style="fill:#393e46"/><ellipse cx="72.16" cy="166.77" rx="1.55" ry="1.52" style="fill:#393e46"/><polygon points="354.45 316.63 262.01 171.42 354.45 171.42 354.45 316.63" style="fill:#83c9c2;fill-opacity:0.5"/><rect x="63.94" y="303.91" width="43.65" height="45.76" rx="3.05" ry="3.05" style="fill:#31b5b5"/><rect x="122.59" y="303.91" width="43.65" height="45.76" rx="3.05" ry="3.05" style="fill:#31b5b5"/><rect x="239.9" y="303.91" width="43.65" height="45.76" rx="3.05" ry="3.05" style="fill:#31b5b5"/><rect x="298.55" y="303.91" width="43.65" height="45.76" rx="3.05" ry="3.05" style="fill:#31b5b5"/><rect x="181.24" y="303.91" width="43.65" height="45.76" rx="3.05" ry="3.05" style="fill:#31b5b5"/><line x1="281.53" y1="188.77" x2="295.27" y2="188.77" style="fill:none;stroke:#31b5b5;stroke-linecap:round;stroke-linejoin:round;stroke-width:2px"/><line x1="305.29" y1="188.77" x2="319.03" y2="188.77" style="fill:none;stroke:#31b5b5;stroke-linecap:round;stroke-linejoin:round;stroke-width:2px"/><line x1="329.05" y1="188.77" x2="342.79" y2="188.77" style="fill:none;stroke:#31b5b5;stroke-linecap:round;stroke-linejoin:round;stroke-width:2px"/><line x1="309.93" y1="219.22" x2="345.28" y2="219.22" style="fill:none;stroke:#31b5b5;stroke-linecap:round;stroke-linejoin:round;stroke-width:3px"/><line x1="280.59" y1="219.22" x2="299" y2="219.22" style="fill:none;stroke:#31b5b5;stroke-linecap:round;stroke-linejoin:round;stroke-width:3px"/><line x1="260.74" y1="219.22" x2="270.86" y2="219.22" style="fill:none;stroke:#31b5b5;stroke-linecap:round;stroke-linejoin:round;stroke-width:3px"/><line x1="241.45" y1="219.22" x2="252.59" y2="219.22" style="fill:none;stroke:#31b5b5;stroke-linecap:round;stroke-linejoin:round;stroke-width:3px"/><line x1="299.7" y1="229.87" x2="329.94" y2="229.87" style="fill:none;stroke:#31b5b5;stroke-linecap:round;stroke-linejoin:round;stroke-width:3px"/><line x1="278.26" y1="229.87" x2="292.77" y2="229.87" style="fill:none;stroke:#31b5b5;stroke-linecap:round;stroke-linejoin:round;stroke-width:3px"/><line x1="241.45" y1="229.87" x2="270.86" y2="229.87" style="fill:none;stroke:#31b5b5;stroke-linecap:round;stroke-linejoin:round;stroke-width:3px"/><polyline points="241.45 240 257.05 240 312.67 240 338.89 240" style="fill:none;stroke:#31b5b5;stroke-linecap:round;stroke-linejoin:round;stroke-width:3px"/><line x1="309.33" y1="251.27" x2="344.69" y2="251.27" style="fill:none;stroke:#31b5b5;stroke-linecap:round;stroke-linejoin:round;stroke-width:3px"/><line x1="257.23" y1="251.27" x2="301.48" y2="251.27" style="fill:none;stroke:#31b5b5;stroke-linecap:round;stroke-linejoin:round;stroke-width:3px"/><line x1="240.85" y1="251.27" x2="251.99" y2="251.27" style="fill:none;stroke:#31b5b5;stroke-linecap:round;stroke-linejoin:round;stroke-width:3px"/><line x1="299.1" y1="261.93" x2="329.34" y2="261.93" style="fill:none;stroke:#31b5b5;stroke-linecap:round;stroke-linejoin:round;stroke-width:3px"/><line x1="277.66" y1="261.93" x2="292.17" y2="261.93" style="fill:none;stroke:#31b5b5;stroke-linecap:round;stroke-linejoin:round;stroke-width:3px"/><line x1="240.85" y1="261.93" x2="270.26" y2="261.93" style="fill:none;stroke:#31b5b5;stroke-linecap:round;stroke-linejoin:round;stroke-width:3px"/><polyline points="240.85 272.06 252.85 272.06 295.62 272.06 315.78 272.06" style="fill:none;stroke:#31b5b5;stroke-linecap:round;stroke-linejoin:round;stroke-width:3px"/><line x1="278.99" y1="283.33" x2="344.69" y2="283.33" style="fill:none;stroke:#31b5b5;stroke-linecap:round;stroke-linejoin:round;stroke-width:3px"/><line x1="260.15" y1="283.33" x2="270.26" y2="283.33" style="fill:none;stroke:#31b5b5;stroke-linecap:round;stroke-linejoin:round;stroke-width:3px"/><line x1="240.85" y1="283.33" x2="251.99" y2="283.33" style="fill:none;stroke:#31b5b5;stroke-linecap:round;stroke-linejoin:round;stroke-width:3px"/><rect x="59.12" y="209.48" width="174.13" height="83.2" rx="8.2" ry="8.2" style="fill:#31b5b5"/><path d="M68.81,179.29a9.48,9.48,0,1,0,9.69,9.48A9.59,9.59,0,0,0,68.81,179.29ZM72.2,193.7l-3.42-4.34L65.3,193.7H63.73L68,188.55,64,183.84h1.64l3.16,3.91L72,183.84h1.58l-3.94,4.67,4.25,5.19Z" style="fill:#31b5b5"/><path d="M359.75,150.92H46.7a7.27,7.27,0,0,0-7.24,7.24v186.6H367V158.16A7.27,7.27,0,0,0,359.75,150.92ZM203.22,155a1.52,1.52,0,1,1-1.51,1.51A1.51,1.51,0,0,1,203.22,155ZM354.48,332.45H52V161.82H354.48Z" style="fill:#404041"/><path d="M39.46,369a7.26,7.26,0,0,0,7.24,7.24h313A7.26,7.26,0,0,0,367,369V344.76H39.46Zm163.75-13.83a3.59,3.59,0,0,1,2.79-3,2.56,2.56,0,0,1,.3-.06h.12c0,.23,0,.46,0,.69a3.19,3.19,0,0,1-.51,1.43,3.6,3.6,0,0,1-1.33,1.3,2.32,2.32,0,0,1-1.32.27h0C203.21,355.54,203.19,355.34,203.21,355.15Zm-6.52,5.27s0-.07,0-.09a5.92,5.92,0,0,1,.27-1.45,4.35,4.35,0,0,1,1.55-2.18,3.79,3.79,0,0,1,2.11-.73,3.65,3.65,0,0,1,1.33.27c.37.14.74.26,1.11.38a.67.67,0,0,0,.52,0l1.24-.42a4.92,4.92,0,0,1,1.16-.27,4.05,4.05,0,0,1,1,.07,3.62,3.62,0,0,1,2,1.08c.14.14.25.29.38.45a3.36,3.36,0,0,0-1.74,3.28,3.54,3.54,0,0,0,2.14,3,.19.19,0,0,0,0,.08,9.84,9.84,0,0,1-1.43,2.7,4.85,4.85,0,0,1-1,1.07,1.77,1.77,0,0,1-1.43.37,4.85,4.85,0,0,1-1-.3,3.58,3.58,0,0,0-1.34-.3,3.64,3.64,0,0,0-1.41.31l-.69.24a1.72,1.72,0,0,1-1.15,0,2.89,2.89,0,0,1-.9-.63,8.65,8.65,0,0,1-.89-1.1,10,10,0,0,1-1.79-4.85c0-.1,0-.21,0-.31Z" style="fill:#f1f1f2"/><path d="M198.5,366.27a8.65,8.65,0,0,0,.89,1.1,2.89,2.89,0,0,0,.9.63,1.72,1.72,0,0,0,1.15,0l.69-.24a3.64,3.64,0,0,1,1.41-.31,3.58,3.58,0,0,1,1.34.3,4.85,4.85,0,0,0,1,.3,1.77,1.77,0,0,0,1.43-.37,4.85,4.85,0,0,0,1-1.07,9.84,9.84,0,0,0,1.43-2.7.19.19,0,0,1,0-.08,3.54,3.54,0,0,1-2.14-3,3.36,3.36,0,0,1,1.74-3.28c-.13-.16-.25-.31-.38-.45a3.62,3.62,0,0,0-2-1.08,4.05,4.05,0,0,0-1-.07,4.92,4.92,0,0,0-1.16.27l-1.24.42a.67.67,0,0,1-.52,0c-.38-.12-.75-.25-1.11-.38a3.65,3.65,0,0,0-1.33-.27,3.79,3.79,0,0,0-2.11.73,4.35,4.35,0,0,0-1.55,2.18,5.92,5.92,0,0,0-.27,1.45s0,.06,0,.09v.69c0,.1,0,.2,0,.31A10,10,0,0,0,198.5,366.27Z" style="fill:#58595b"/><path d="M204.58,355.48a3.6,3.6,0,0,0,1.33-1.3,3.19,3.19,0,0,0,.51-1.43c0-.23,0-.47,0-.69h-.12a2.56,2.56,0,0,0-.3.06,3.59,3.59,0,0,0-2.79,3c0,.19,0,.39,0,.59h0A2.32,2.32,0,0,0,204.58,355.48Z" style="fill:#58595b"/><path d="M203.22,158a1.52,1.52,0,1,0-1.51-1.52A1.52,1.52,0,0,0,203.22,158Z" style="fill:#929497"/><path d="M338.34,122.58,333.1,63.75h57.64l-5.24,58.82-23.6,6.54Z" style="fill:#bcbcbc;opacity:0.300000011920929;isolation:isolate"/><path d="M337.36,120.75,331.9,59.51h60l-5.47,61.23-24.57,6.81Z" style="fill:#1572b6"/><path d="M361.9,122.35l19.85-5.5,4.67-52.33H361.9Z" style="fill:#33a9dc"/><path d="M361.9,86.71h9.94l.69-7.69H361.9V71.5h18.83l-.18,2-1.85,20.7H361.9Z" style="fill:#fff"/><path d="M361.94,106.21h0L353.55,104,353,98h-7.54l1.05,11.79L361.91,114h0Z" style="fill:#ebebeb"/><path d="M371.2,93.9,370.3,104l-8.38,2.26V114l15.4-4.27.11-1.27,1.31-14.6Z" style="fill:#fff"/><path d="M361.93,71.5V79H343.78l-.15-1.69-.34-3.81-.18-2Z" style="fill:#ebebeb"/><path d="M361.9,86.71v7.51h-8.26l-.16-1.69-.34-3.81-.18-2Z" style="fill:#ebebeb"/><polyline points="496.72 251.38 496.72 293.99 525.39 293.99" style="fill:none;stroke:#dce9f4;stroke-linecap:round;stroke-linejoin:round;stroke-width:3px"/><circle cx="525.11" cy="293.99" r="5.64" style="fill:#dce9f4"/><polyline points="263.01 34 158.32 34 158.32 132.42" style="fill:none;stroke:#dce9f4;stroke-linecap:round;stroke-linejoin:round;stroke-width:3px"/><circle cx="158.32" cy="132.14" r="5.64" style="fill:#dce9f4"/><polyline points="563.38 327.24 563.38 390.77 525.77 390.77" style="fill:none;stroke:#dce9f4;stroke-linecap:round;stroke-linejoin:round;stroke-width:3px"/><circle cx="526.06" cy="390.77" r="5.64" style="fill:#dce9f4"/><polyline points="468.97 251.38 516.78 251.38 516.78 180.67 468.56 180.67" style="fill:none;stroke:#dce9f4;stroke-linecap:round;stroke-linejoin:round;stroke-width:3px"/><circle cx="468.85" cy="180.67" r="5.64" style="fill:#dce9f4"/><polyline points="361.94 56.63 361.94 34 510.36 34 510.36 82.14" style="fill:none;stroke:#dce9f4;stroke-linecap:round;stroke-linejoin:round;stroke-width:3px"/><circle cx="510.36" cy="81.86" r="5.64" style="fill:#dce9f4"/><polyline points="563.38 245.69 563.38 12.15 263.01 12.15 263.01 82.86 311.23 82.86" style="fill:none;stroke:#dce9f4;stroke-linecap:round;stroke-linejoin:round;stroke-width:3px"/><circle cx="310.94" cy="82.86" r="5.64" style="fill:#dce9f4"/><polyline points="429.74 145.25 429.74 88.22 402.16 88.22" style="fill:none;stroke:#dce9f4;stroke-linecap:round;stroke-linejoin:round;stroke-width:3px"/><circle cx="402.44" cy="88.22" r="5.64" style="fill:#dce9f4"/><polyline points="26.5 218.06 10.24 218.06 10.24 402.37 54.71 402.37" style="fill:none;stroke:#dce9f4;stroke-linecap:round;stroke-linejoin:round;stroke-width:3px"/><circle cx="54.43" cy="402.37" r="5.64" style="fill:#dce9f4"/><path d="M540.54,314.64l-5.35-60H594l-5.36,60-24.09,6.68Z" style="fill:#bcbcbc;opacity:0.300000011920929;isolation:isolate"/><path d="M539.35,313.46l-5.35-60h58.81l-5.36,60-24.09,6.68Z" style="fill:#e44f26"/><path d="M563.41,315l19.46-5.4,4.58-51.29h-24Z" style="fill:#f1662a"/><path d="M563.41,280.6h-9.74l-.68-7.54H563.4V265.7H544.94l.18,2L546.93,288h16.48Z" style="fill:#ebebeb"/><path d="M563.41,299.72h0l-8.2-2.2-.52-5.87h-7.39l1,11.56,15.08,4.19h0Z" style="fill:#ebebeb"/><path d="M563.38,280.6V288h9.07l-.85,9.56-8.21,2.21v7.66l15.09-4.18.11-1.24,1.73-19.38.18-2H563.38Z" style="fill:#fff"/><path d="M563.38,265.7v7.36h17.79l.15-1.65.34-3.73.18-2Z" style="fill:#fff"/><rect x="481.58" y="102.54" width="57.56" height="55.75" rx="7.72" ry="7.72" style="fill:#bcbcbc;opacity:0.300000011920929;isolation:isolate"/><rect x="480.19" y="96.82" width="60" height="60" rx="8.17" ry="8.17" style="fill:#ffd400"/><path d="M514.08,127h-4.89a7.38,7.38,0,0,1-.12-.86q0-.47,0-.89t0-.87a7.46,7.46,0,0,1,.12-.84H518v20.16a13.12,13.12,0,0,1-.51,3.92,6.07,6.07,0,0,1-1.47,2.54,5.53,5.53,0,0,1-2.37,1.36,11.23,11.23,0,0,1-3.15.41,12.92,12.92,0,0,1-1.86-.14q-.93-.14-1.71-.33a9.11,9.11,0,0,1,.16-1.63,11.62,11.62,0,0,1,.47-1.75l1.07.25a5.69,5.69,0,0,0,1.26.14,8.85,8.85,0,0,0,1.42-.12,3.59,3.59,0,0,0,1.34-.51,2.81,2.81,0,0,0,1-1.17,4.76,4.76,0,0,0,.39-2.1Z"/><path d="M522.08,147.9a13.29,13.29,0,0,0,4.82.93,7.34,7.34,0,0,0,1.71-.19,4.53,4.53,0,0,0,1.42-.58,3.25,3.25,0,0,0,1-1,2.25,2.25,0,0,0,.37-1.26,2.54,2.54,0,0,0-.29-1.28,2.72,2.72,0,0,0-.78-.86,5.17,5.17,0,0,0-1.13-.6q-.64-.25-1.38-.49l-1.36-.51a9.82,9.82,0,0,1-3.61-2.1,4.34,4.34,0,0,1-1.13-3.15,5.15,5.15,0,0,1,1.88-4.2,8.52,8.52,0,0,1,5.54-1.55,15.12,15.12,0,0,1,3,.29,18.36,18.36,0,0,1,2.55.68,9.43,9.43,0,0,1-.29,1.55,8.94,8.94,0,0,1-.53,1.44,20.16,20.16,0,0,0-2-.6,10.63,10.63,0,0,0-2.54-.29,6.08,6.08,0,0,0-2.54.51,1.8,1.8,0,0,0-1.11,1.79,2.2,2.2,0,0,0,.27,1.13,2.53,2.53,0,0,0,.74.8,4.88,4.88,0,0,0,1.07.56q.6.23,1.31.47l1.71.58a12.76,12.76,0,0,1,1.77.74,5.22,5.22,0,0,1,1.44,1.07,5,5,0,0,1,1,1.55,6.42,6.42,0,0,1-.22,4.82,5.77,5.77,0,0,1-1.65,2,7.93,7.93,0,0,1-2.58,1.31,11.32,11.32,0,0,1-3.34.47,18.59,18.59,0,0,1-3.27-.25,16.58,16.58,0,0,1-2.6-.68,7.72,7.72,0,0,1,.33-1.57Q521.77,148.68,522.08,147.9Z"/><path d="M452.69,178.38c-.37,1-.77,2-1.12,3a3.08,3.08,0,0,1-2.6,2.39,3.8,3.8,0,0,1-1.44-.18c-.7-.2-1.37-.48-2.05-.75-.25-.1-.37,0-.55.17-1,1.15-2.05,2.29-3.12,3.4a.53.53,0,0,0-.14.73,20.76,20.76,0,0,1,1,2.18,2.82,2.82,0,0,1-1.42,3.57c-1,.53-2.07,1-3.13,1.46a3,3,0,0,1-3.9-1.58c-.29-.63-.59-1.26-.87-1.89a.43.43,0,0,0-.54-.3,15.55,15.55,0,0,1-4.56.18c-.39,0-.54.12-.65.46-.25.72-.52,1.43-.81,2.14a2.93,2.93,0,0,1-3.88,1.51l-2.81-1a2.93,2.93,0,0,1-1.81-3.79c.24-.7.51-1.4.78-2.1.1-.27,0-.41-.19-.6-1.26-1.08-2.49-2.17-3.83-3.35l-1.53.7a3.58,3.58,0,0,1-2.78.42,2.86,2.86,0,0,1-1.75-1.52c-.45-.95-.9-1.9-1.33-2.86a3,3,0,0,1,1.64-4.2c.59-.26,1.18-.51,1.75-.8a.63.63,0,0,0,.26-.48c0-1.57-.12-3.15-.14-4.72a.47.47,0,0,0-.38-.5l-1.91-.7a3,3,0,0,1-1.84-4c.34-.89.67-1.78,1-2.67a3,3,0,0,1,3.9-2c.69.22,1.38.47,2.05.74.3.12.44,0,.63-.21,1-1.13,2-2.25,3.1-3.35a.51.51,0,0,0,.12-.69,24.23,24.23,0,0,1-1-2.23,2.88,2.88,0,0,1,1.52-3.62q1.4-.66,2.82-1.29a3,3,0,0,1,4.2,1.68c.24.58.5,1.15.79,1.7a.65.65,0,0,0,.5.26q2.36-.05,4.72-.17a.64.64,0,0,0,.46-.32c.26-.62.48-1.27.71-1.91a3,3,0,0,1,3.89-1.9c1,.37,2.07.74,3.09,1.16a2.87,2.87,0,0,1,1.68,3.67c-.24.73-.5,1.44-.78,2.15-.11.27,0,.4.19.59,1.13,1,2.26,2,3.35,3.1a.55.55,0,0,0,.74.15c.58-.28,1.17-.54,1.75-.82a3,3,0,0,1,4.1,1.43q.67,1.4,1.3,2.81a2.93,2.93,0,0,1-1.5,4c-.64.31-1.29.59-1.93.91a.5.5,0,0,0-.25.35c.08,1.72.19,3.44.3,5.23l2.29.87a2.9,2.9,0,0,1,1.78,1.9,1.69,1.69,0,0,0,.14.26Zm-23,5.44a11.62,11.62,0,1,0-11.55-12.17A11.56,11.56,0,0,0,429.68,183.82Z" style="fill:#3a4750"/><path d="M392.77,199.62c0-.64,0-1.28-.07-1.92a1.82,1.82,0,0,1,2-2.11c1.15,0,1.13,0,1.45-1.09a13.72,13.72,0,0,1,.64-1.66.47.47,0,0,0-.16-.65,8.8,8.8,0,0,1-.9-.82,1.69,1.69,0,0,1-.12-2.31,16.09,16.09,0,0,1,1.44-1.58,1.69,1.69,0,0,1,2.35-.09c.32.25.6.56.93.79a.69.69,0,0,0,.57.06c.76-.33,1.5-.71,2.26-1a.47.47,0,0,0,.32-.55,10.61,10.61,0,0,1,0-1.32,1.72,1.72,0,0,1,1.61-1.66c.62-.05,1.25-.09,1.88-.1a1.75,1.75,0,0,1,1.92,1.83c.07,1.37.08,1.36,1.37,1.72a6.16,6.16,0,0,1,1.27.52.57.57,0,0,0,.85-.2,6.36,6.36,0,0,1,.76-.82,1.71,1.71,0,0,1,2.35-.08c.47.38.93.79,1.37,1.22a1.68,1.68,0,0,1,.13,2.64c-.82.79-.95,1.45-.24,2.34a4.22,4.22,0,0,1,.54,1.26.49.49,0,0,0,.61.37,8.08,8.08,0,0,1,1.27,0,1.68,1.68,0,0,1,1.66,1.6c.06.66.1,1.32.11,2a1.73,1.73,0,0,1-1.71,1.84c-.49,0-1.09-.06-1.42.19s-.29.86-.45,1.31a12.43,12.43,0,0,1-.53,1.26.43.43,0,0,0,.12.61,9.88,9.88,0,0,1,1,.89,1.68,1.68,0,0,1,.07,2.31,18.72,18.72,0,0,1-1.29,1.44,1.78,1.78,0,0,1-2.67.06c-1-.9-1-.88-2.14-.26a11.24,11.24,0,0,1-1.4.6.45.45,0,0,0-.34.53,12.29,12.29,0,0,1,.05,1.32,1.65,1.65,0,0,1-1.49,1.65,19.26,19.26,0,0,1-2.23.11,1.68,1.68,0,0,1-1.7-1.62c0-.4,0-.82-.09-1.21a.62.62,0,0,0-.32-.41q-1.2-.47-2.44-.86a.62.62,0,0,0-.51.13c-.32.29-.58.66-.91,1a1.69,1.69,0,0,1-2.35.07,18.47,18.47,0,0,1-1.46-1.33,1.74,1.74,0,0,1,0-2.55c.3-.34.79-.67.84-1s-.37-.79-.57-1.2a11.14,11.14,0,0,1-.51-1.22c-.12-.36-.28-.54-.69-.46a9.1,9.1,0,0,1-1,.06,2.11,2.11,0,0,1-1.63-.67Zm16.7,4.43a6.92,6.92,0,1,0-9.14-3.92A7,7,0,0,0,409.47,204.05Z" style="fill:#3a4750"/><path d="M429.31,198.65a2.5,2.5,0,0,1,0,.3c-.07.29-.31.69-.2.85a6.1,6.1,0,0,0,1.16,1.12c.08.06.32,0,.46-.08,1-.46,1.42-.3,1.86.72.09.2.18.4.25.61a.94.94,0,0,1-.58,1.28c-.49.19-.79.43-.6,1a.21.21,0,0,1,0,.1c-.13.71.07,1.2.84,1.36a.67.67,0,0,1,.36.27c.56.8-.06,1.45-.31,2.13-.15.41-.68.52-1.21.37a1.7,1.7,0,0,0-.43-.14.83.83,0,0,0-.5.14c-.24.21-.4.52-.65.71s-.32.51-.14.86c.42.85.23,1.28-.64,1.68l-.36.18c-.86.43-1.35.27-1.74-.62-.16-.37-.36-.55-.76-.43H426c-.81-.12-1.39.11-1.59,1a.44.44,0,0,1-.15.2c-.46.41-1.15.25-2.14-.27a.93.93,0,0,1-.35-1.33c.22-.47.18-.79-.29-1a.32.32,0,0,1-.12-.1,1.06,1.06,0,0,0-1.57-.37.88.88,0,0,1-1.21-.52l-.18-.37c-.57-1.23-.49-1.44.72-2.1.13-.07.18-.3.24-.47s0-.17,0-.25c.06-.77,0-1.41-1-1.62-.2,0-.46-.57-.42-.82a4.67,4.67,0,0,1,.59-1.6.9.9,0,0,1,1.24-.21c.48.24.72,0,1.05-.3.56-.53.82-1,.4-1.76a.77.77,0,0,1,.4-1,7.07,7.07,0,0,1,1.15-.53.9.9,0,0,1,1.24.58.82.82,0,0,0,1.14.6h.1a.9.9,0,0,0,1.2-.77.9.9,0,0,1,1.13-.61,4.87,4.87,0,0,1,1.23.48,2.91,2.91,0,0,1,.6.73Zm-7.68,6.19a3.84,3.84,0,1,0,7.68.1,3.84,3.84,0,0,0-7.68-.1Z" style="fill:#3a4750"/><rect x="71.59" y="288.26" width="103.04" height="152.57" rx="3.16" ry="3.16" style="fill:#262626"/><rect x="71.59" y="288.26" width="103.04" height="152.57" rx="3.16" ry="3.16" style="fill:none;stroke:#404041;stroke-miterlimit:10;stroke-width:0.249055px"/><ellipse cx="123.11" cy="295.98" rx="1.02" ry="1.08" style="fill:#929497"/><rect x="76.64" y="303.18" width="92.92" height="122.74" style="fill:#58595b"/><path d="M127,433.81a3.91,3.91,0,1,0-3.9,3.91A3.9,3.9,0,0,0,127,433.81Z" style="fill:#404041"/><rect x="76.64" y="303.18" width="92.95" height="122.74" style="fill:#d72323"/><polygon points="169.64 404.18 121.19 303.18 169.64 303.18 169.64 404.18" style="fill:#f44747"/><path d="M84.58,307.87a4,4,0,1,0,4,4A4,4,0,0,0,84.58,307.87ZM86,314l-1.42-1.84L83.13,314h-.65l1.76-2.19-1.64-2h.68l1.31,1.66,1.32-1.66h.65l-1.64,2,1.76,2.2Z" style="fill:#e83434"/><path d="M164.94,310.77H161.1a.29.29,0,1,1,0-.56h3.84a.29.29,0,1,1,0,.56Z" style="fill:#e83434"/><path d="M164.94,312.17H161.1a.29.29,0,1,1,0-.56h3.84a.29.29,0,1,1,0,.56Z" style="fill:#e83434"/><path d="M164.94,313.57H161.1a.29.29,0,1,1,0-.56h3.84a.29.29,0,1,1,0,.56Z" style="fill:#e83434"/><rect x="80.56" y="322.14" width="84.73" height="41.36" rx="4.03" ry="4.03" style="fill:#e83434"/><rect x="80.55" y="391.01" width="23.36" height="25.02" rx="1.65" ry="1.65" style="fill:#e83434"/><rect x="111.24" y="391.01" width="23.36" height="25.02" rx="1.65" ry="1.65" style="fill:#e83434"/><rect x="141.94" y="391.01" width="23.36" height="25.02" rx="1.65" ry="1.65" style="fill:#e83434"/><line x1="135.1" y1="369.55" x2="162.3" y2="369.55" style="fill:none;stroke:#e83434;stroke-linecap:round;stroke-linejoin:round;stroke-width:3px"/><line x1="112.53" y1="369.55" x2="126.69" y2="369.55" style="fill:none;stroke:#e83434;stroke-linecap:round;stroke-linejoin:round;stroke-width:3px"/><line x1="97.26" y1="369.55" x2="105.04" y2="369.55" style="fill:none;stroke:#e83434;stroke-linecap:round;stroke-linejoin:round;stroke-width:3px"/><line x1="82.41" y1="369.55" x2="90.98" y2="369.55" style="fill:none;stroke:#e83434;stroke-linecap:round;stroke-linejoin:round;stroke-width:3px"/><line x1="127.23" y1="377.92" x2="150.49" y2="377.92" style="fill:none;stroke:#e83434;stroke-linecap:round;stroke-linejoin:round;stroke-width:3px"/><line x1="110.74" y1="377.92" x2="121.9" y2="377.92" style="fill:none;stroke:#e83434;stroke-linecap:round;stroke-linejoin:round;stroke-width:3px"/><line x1="82.41" y1="377.92" x2="105.04" y2="377.92" style="fill:none;stroke:#e83434;stroke-linecap:round;stroke-linejoin:round;stroke-width:3px"/><polyline points="82.41 385.89 94.41 385.89 137.21 385.89 157.38 385.89" style="fill:none;stroke:#e83434;stroke-linecap:round;stroke-linejoin:round;stroke-width:3px"/><path d="M319.83,429.42H293.69s.75,4.45,4.83,4.45h41.83c4.09,0,4.83-4.45,4.83-4.45Z" style="fill:#ddd"/><rect x="174.89" y="238.85" width="289.97" height="184.67" style="fill:#58595b"/><path d="M179.63,251.38H458.32a0,0,0,0,1,0,0V417.25a2.68,2.68,0,0,1-2.68,2.68H182.31a2.68,2.68,0,0,1-2.68-2.68V251.38A0,0,0,0,1,179.63,251.38Z" style="fill:#446893"/><path d="M182.31,242.54H455.64a2.68,2.68,0,0,1,2.68,2.68v6.16a0,0,0,0,1,0,0H179.63a0,0,0,0,1,0,0v-6.16A2.68,2.68,0,0,1,182.31,242.54Z" style="fill:#e0dede"/><ellipse cx="185.65" cy="247.1" rx="1.43" ry="1.4" style="fill:#393e46"/><ellipse cx="191.94" cy="247.1" rx="1.43" ry="1.4" style="fill:#393e46"/><ellipse cx="198.22" cy="247.1" rx="1.43" ry="1.4" style="fill:#393e46"/><polygon points="458.32 385.17 373.15 251.38 458.32 251.38 458.32 385.17" style="fill:#83c9c2;fill-opacity:0.5"/><rect x="190.65" y="373.46" width="40.22" height="42.17" rx="2.81" ry="2.81" style="fill:#31b5b5"/><rect x="244.69" y="373.46" width="40.22" height="42.17" rx="2.81" ry="2.81" style="fill:#31b5b5"/><rect x="352.77" y="373.46" width="40.22" height="42.17" rx="2.81" ry="2.81" style="fill:#31b5b5"/><rect x="406.82" y="373.46" width="40.22" height="42.17" rx="2.81" ry="2.81" style="fill:#31b5b5"/><rect x="298.73" y="373.46" width="40.22" height="42.17" rx="2.81" ry="2.81" style="fill:#31b5b5"/><line x1="391.13" y1="267.37" x2="403.79" y2="267.37" style="fill:none;stroke:#31b5b5;stroke-linecap:round;stroke-linejoin:round;stroke-width:2px"/><line x1="413.03" y1="267.37" x2="425.69" y2="267.37" style="fill:none;stroke:#31b5b5;stroke-linecap:round;stroke-linejoin:round;stroke-width:2px"/><line x1="434.92" y1="267.37" x2="447.58" y2="267.37" style="fill:none;stroke:#31b5b5;stroke-linecap:round;stroke-linejoin:round;stroke-width:2px"/><line x1="417.3" y1="295.42" x2="449.87" y2="295.42" style="fill:none;stroke:#31b5b5;stroke-linecap:round;stroke-linejoin:round;stroke-width:3px"/><line x1="390.27" y1="295.42" x2="407.23" y2="295.42" style="fill:none;stroke:#31b5b5;stroke-linecap:round;stroke-linejoin:round;stroke-width:3px"/><line x1="371.98" y1="295.42" x2="381.3" y2="295.42" style="fill:none;stroke:#31b5b5;stroke-linecap:round;stroke-linejoin:round;stroke-width:3px"/><line x1="354.2" y1="295.42" x2="364.47" y2="295.42" style="fill:none;stroke:#31b5b5;stroke-linecap:round;stroke-linejoin:round;stroke-width:3px"/><line x1="407.88" y1="305.23" x2="435.73" y2="305.23" style="fill:none;stroke:#31b5b5;stroke-linecap:round;stroke-linejoin:round;stroke-width:3px"/><line x1="388.12" y1="305.23" x2="401.49" y2="305.23" style="fill:none;stroke:#31b5b5;stroke-linecap:round;stroke-linejoin:round;stroke-width:3px"/><line x1="354.2" y1="305.23" x2="381.3" y2="305.23" style="fill:none;stroke:#31b5b5;stroke-linecap:round;stroke-linejoin:round;stroke-width:3px"/><polyline points="354.2 314.57 368.57 314.57 419.83 314.57 443.98 314.57" style="fill:none;stroke:#31b5b5;stroke-linecap:round;stroke-linejoin:round;stroke-width:3px"/><line x1="416.75" y1="324.95" x2="449.32" y2="324.95" style="fill:none;stroke:#31b5b5;stroke-linecap:round;stroke-linejoin:round;stroke-width:3px"/><line x1="368.75" y1="324.95" x2="409.52" y2="324.95" style="fill:none;stroke:#31b5b5;stroke-linecap:round;stroke-linejoin:round;stroke-width:3px"/><line x1="353.65" y1="324.95" x2="363.92" y2="324.95" style="fill:none;stroke:#31b5b5;stroke-linecap:round;stroke-linejoin:round;stroke-width:3px"/><line x1="407.33" y1="334.77" x2="435.18" y2="334.77" style="fill:none;stroke:#31b5b5;stroke-linecap:round;stroke-linejoin:round;stroke-width:3px"/><line x1="387.57" y1="334.77" x2="400.94" y2="334.77" style="fill:none;stroke:#31b5b5;stroke-linecap:round;stroke-linejoin:round;stroke-width:3px"/><line x1="353.65" y1="334.77" x2="380.75" y2="334.77" style="fill:none;stroke:#31b5b5;stroke-linecap:round;stroke-linejoin:round;stroke-width:3px"/><polyline points="353.65 344.11 364.7 344.11 404.12 344.11 422.69 344.11" style="fill:none;stroke:#31b5b5;stroke-linecap:round;stroke-linejoin:round;stroke-width:3px"/><line x1="388.79" y1="354.49" x2="449.32" y2="354.49" style="fill:none;stroke:#31b5b5;stroke-linecap:round;stroke-linejoin:round;stroke-width:3px"/><line x1="371.43" y1="354.49" x2="380.75" y2="354.49" style="fill:none;stroke:#31b5b5;stroke-linecap:round;stroke-linejoin:round;stroke-width:3px"/><line x1="353.65" y1="354.49" x2="363.92" y2="354.49" style="fill:none;stroke:#31b5b5;stroke-linecap:round;stroke-linejoin:round;stroke-width:3px"/><rect x="186.21" y="286.45" width="160.44" height="76.66" rx="7.56" ry="7.56" style="fill:#31b5b5"/><path d="M195.13,258.63a8.74,8.74,0,1,0,8.93,8.74A8.83,8.83,0,0,0,195.13,258.63Zm3.13,13.28-3.15-4-3.21,4h-1.44l3.9-4.75-3.63-4.34h1.51l2.91,3.6,2.93-3.6h1.45l-3.63,4.3,3.91,4.79Z" style="fill:#31b5b5"/><path d="M469,237.51a6.47,6.47,0,0,0-6.45-6.45H177.16a6.47,6.47,0,0,0-6.45,6.45V429.42H469ZM458.34,419.92H179.63V242.52H458.34Z" style="fill:#404041"/><polygon points="465.75 429.42 173.93 429.42 137.42 429.42 137.42 436 502.42 436 502.42 429.42 465.75 429.42" style="fill:#bfc0c1"/><path d="M321.55,237.29a1.55,1.55,0,1,0-1.55,1.56A1.55,1.55,0,0,0,321.55,237.29Z" style="fill:#929497"/><path d="M137.42,436s2.22,4.83,21.12,4.83H481.3c18.9,0,21.11-4.83,21.11-4.83" style="fill:#ddd"/><rect x="458.33" y="324.72" width="58.45" height="116.11" rx="5.23" ry="5.23" style="fill:#ddd"/><rect x="460.96" y="336" width="53.43" height="92.77" style="fill:#d72323"/><rect x="463.48" y="414.06" width="22.2" height="14.72" rx="1.23" ry="1.23" style="fill:#e83434"/><rect x="489.66" y="414.06" width="22.2" height="14.72" rx="1.23" ry="1.23" style="fill:#e83434"/><circle cx="487.56" cy="328.5" r="1.27" style="fill:#ccc;stroke:#ccc;stroke-linecap:round;stroke-linejoin:round"/><line x1="484.04" y1="333.02" x2="491.08" y2="333.02" style="fill:#fff;stroke:#ccc;stroke-linecap:round;stroke-linejoin:round"/><circle cx="487.56" cy="434.05" r="3.78" style="fill:#fff;stroke:#ccc;stroke-linecap:round;stroke-linejoin:round"/><polygon points="514.41 394.06 486.56 336 514.41 336 514.41 394.06" style="fill:#f44747"/><path d="M487.67,337.35a3.66,3.66,0,1,0,3.66,3.66A3.66,3.66,0,0,0,487.67,337.35Zm1.28,5.57-1.29-1.68-1.32,1.68h-.59l1.6-2-1.49-1.82h.62l1.19,1.51,1.2-1.51h.6l-1.49,1.8,1.61,2Z" style="fill:#e83434"/><path d="M510.33,340h-3.49a.26.26,0,1,1,0-.51h3.49a.26.26,0,1,1,0,.51Z" style="fill:#e83434"/><path d="M510.33,341.27h-3.49a.26.26,0,1,1,0-.51h3.49a.26.26,0,1,1,0,.51Z" style="fill:#e83434"/><path d="M510.33,342.54h-3.49a.26.26,0,1,1,0-.51h3.49a.26.26,0,1,1,0,.51Z" style="fill:#e83434"/><rect x="463.21" y="346.9" width="48.7" height="23.77" rx="2.32" ry="2.32" style="fill:#e83434"/><rect x="463.44" y="387.57" width="22.2" height="23.77" rx="1.57" ry="1.57" style="fill:#e83434"/><rect x="489.62" y="387.57" width="22.2" height="23.77" rx="1.57" ry="1.57" style="fill:#e83434"/><line x1="494.56" y1="374.16" x2="510.19" y2="374.16" style="fill:none;stroke:#e83434;stroke-linecap:round;stroke-linejoin:round;stroke-width:2px"/><line x1="481.58" y1="374.16" x2="489.72" y2="374.16" style="fill:none;stroke:#e83434;stroke-linecap:round;stroke-linejoin:round;stroke-width:2px"/><line x1="472.8" y1="374.16" x2="477.28" y2="374.16" style="fill:none;stroke:#e83434;stroke-linecap:round;stroke-linejoin:round;stroke-width:2px"/><line x1="464.27" y1="374.16" x2="469.2" y2="374.16" style="fill:none;stroke:#e83434;stroke-linecap:round;stroke-linejoin:round;stroke-width:2px"/><line x1="490.03" y1="378.97" x2="503.41" y2="378.97" style="fill:none;stroke:#e83434;stroke-linecap:round;stroke-linejoin:round;stroke-width:2px"/><line x1="480.55" y1="378.97" x2="486.97" y2="378.97" style="fill:none;stroke:#e83434;stroke-linecap:round;stroke-linejoin:round;stroke-width:2px"/><line x1="464.27" y1="378.97" x2="477.28" y2="378.97" style="fill:none;stroke:#e83434;stroke-linecap:round;stroke-linejoin:round;stroke-width:2px"/><polyline points="464.27 383.55 471.17 383.55 495.77 383.55 507.36 383.55" style="fill:none;stroke:#e83434;stroke-linecap:round;stroke-linejoin:round;stroke-width:2px"/></svg>