<svg id="Layer_1" data-name="Layer 1" xmlns="http://www.w3.org/2000/svg" xmlns:xlink="http://www.w3.org/1999/xlink" viewBox="0 0 377.17 350.28">
  <defs>
    <style>
      .cls-1 {
        fill: #eee;
      }

      .cls-2 {
        fill: url(#linear-gradient);
      }

      .cls-3 {
        fill: #f2f2f2;
      }

      .cls-4 {
        fill: #d72323;
      }

      .cls-5 {
        fill: #1b1f3a;
      }

      .cls-6 {
        fill: url(#linear-gradient-2);
      }

      .cls-7 {
        fill: #fff;
      }

      .cls-8 {
        fill: #ffc108;
      }

      .cls-9 {
        fill: #ffda25;
      }

      .cls-10 {
        fill: #ffe98d;
      }

      .cls-11 {
        fill: #ff8f00;
      }

      .cls-12 {
        fill: #ff7844;
      }

      .cls-13 {
        fill: #393e46;
      }

      .cls-14, .cls-15 {
        stroke: #2e3192;
        stroke-miterlimit: 10;
      }

      .cls-14 {
        fill: url(#linear-gradient-3);
      }

      .cls-15 {
        fill: #6197aa;
      }

      .cls-16, .cls-20 {
        fill: none;
      }

      .cls-17 {
        fill: #2e3192;
      }

      .cls-18 {
        fill: #676767;
      }

      .cls-19 {
        fill: gray;
      }

      .cls-20 {
        stroke: #f78536;
        stroke-linecap: round;
        stroke-linejoin: round;
        stroke-width: 0.5px;
      }
    </style>
    <linearGradient id="linear-gradient" x1="347.17" y1="140.21" x2="347.17" y2="102.71" gradientUnits="userSpaceOnUse">
      <stop offset="0" stop-color="#0071bc"/>
      <stop offset="0.15" stop-color="#0758a4"/>
      <stop offset="0.37" stop-color="#103a88"/>
      <stop offset="0.59" stop-color="#162574"/>
      <stop offset="0.8" stop-color="#1a1868"/>
      <stop offset="1" stop-color="#1b1464"/>
    </linearGradient>
    <linearGradient id="linear-gradient-2" x1="30" y1="140.21" x2="30" y2="102.71" gradientUnits="userSpaceOnUse">
      <stop offset="0" stop-color="#f15a24"/>
      <stop offset="0.25" stop-color="#f25624"/>
      <stop offset="0.51" stop-color="#f54924"/>
      <stop offset="0.78" stop-color="#fa3425"/>
      <stop offset="1" stop-color="#ff1d25"/>
    </linearGradient>
    <linearGradient id="linear-gradient-3" x1="105.93" y1="371.6" x2="105.93" y2="388.62" gradientTransform="matrix(0.71, 0.71, 0.71, -0.71, -237.75, 261.76)" gradientUnits="userSpaceOnUse">
      <stop offset="0" stop-color="#fff"/>
      <stop offset="0.25" stop-color="#dcdcdc"/>
      <stop offset="0.81" stop-color="#858585"/>
      <stop offset="1" stop-color="#666"/>
    </linearGradient>
  </defs>
  <title>Ideas Bulb</title>
  <g>
    <g>
      <circle class="cls-1" cx="347.17" cy="121.46" r="30"/>
      <g>
        <rect class="cls-2" x="329.67" y="102.71" width="35" height="37.5" rx="3.74" ry="3.74"/>
        <path class="cls-3" d="M336.84,133.27V109h5.45a9.66,9.66,0,0,1,2.5.36,8.86,8.86,0,0,1,2.55,1.14,6.84,6.84,0,0,1,2,2,5.25,5.25,0,0,1,.8,2.95,6.48,6.48,0,0,1-1.87,4.87,7.5,7.5,0,0,1-5.45,1.82H339v11.13ZM339,120.05h3.3a7.68,7.68,0,0,0,2.78-.43,4.76,4.76,0,0,0,1.75-1.11,3.86,3.86,0,0,0,.9-1.49,5.17,5.17,0,0,0,.26-1.58,3.44,3.44,0,0,0-.43-1.67,4.71,4.71,0,0,0-1.18-1.4,5.88,5.88,0,0,0-1.79-1,6.78,6.78,0,0,0-2.25-.36H339Z"/>
        <path class="cls-3" d="M357.3,121.47l-.59.8q-.31.42-.62.8a3.21,3.21,0,0,0-.92-.64,3.11,3.11,0,0,0-1.44-.33,2.19,2.19,0,0,0-1.35.42,1.35,1.35,0,0,0-.49,1.28,1.2,1.2,0,0,0,.5.94,5.4,5.4,0,0,0,1.13.62q.66.28,1.4.56a6.53,6.53,0,0,1,1.4.73,3.65,3.65,0,0,1,1.08,1.14,3.4,3.4,0,0,1,.42,1.77,4.3,4.3,0,0,1-.21,1.21,4,4,0,0,1-.69,1.32,3.77,3.77,0,0,1-1.32,1,4.73,4.73,0,0,1-2.12.42,7,7,0,0,1-2.32-.42,4.32,4.32,0,0,1-1.87-1.21q.35-.38.66-.78t.66-.78a6,6,0,0,0,1.4.8,4.2,4.2,0,0,0,1.54.28,2.88,2.88,0,0,0,.52-.07,2,2,0,0,0,.68-.28,2.47,2.47,0,0,0,.61-.56,1.46,1.46,0,0,0,.28-.94,1.44,1.44,0,0,0-.38-1.16,3.27,3.27,0,0,0-1.08-.66q-.66-.26-1.44-.49a6.77,6.77,0,0,1-1.46-.61,3.28,3.28,0,0,1-1.13-1.06,3.31,3.31,0,0,1-.45-1.86,3.46,3.46,0,0,1,1.35-2.88,4,4,0,0,1,1.27-.66,4.42,4.42,0,0,1,1.3-.21,6.06,6.06,0,0,1,.83.07,5.82,5.82,0,0,1,1,.24,5.12,5.12,0,0,1,1,.45A3.75,3.75,0,0,1,357.3,121.47Z"/>
      </g>
    </g>
    <g>
      <circle class="cls-1" cx="188.73" cy="30" r="30"/>
      <g>
        <path class="cls-4" d="M175.68,14.19l3,29.21a1.53,1.53,0,0,0,2.87.57l5.5-10.25a1.53,1.53,0,0,1,1.46-.8l11.6.85A1.53,1.53,0,0,0,201.2,31l-23-18.2A1.53,1.53,0,0,0,175.68,14.19Z"/>
        <path class="cls-5" d="M201.22,40.79l-3-1.7a.33.33,0,0,0-.49.29v1h-2v-2h1a.33.33,0,0,0,.29-.49l-1.7-3a.33.33,0,0,0-.58,0l-1.7,3a.33.33,0,0,0,.29.49h1v2h-2v-1a.33.33,0,0,0-.49-.29l-3,1.7a.33.33,0,0,0,0,.58l3,1.7a.33.33,0,0,0,.49-.29v-1h2v2h-1a.33.33,0,0,0-.29.49l1.7,3a.33.33,0,0,0,.58,0l1.7-3a.33.33,0,0,0-.29-.49h-1v-2h2v1a.33.33,0,0,0,.49.29l3-1.7A.33.33,0,0,0,201.22,40.79Z"/>
      </g>
    </g>
    <g>
      <circle class="cls-1" cx="30" cy="121.46" r="30"/>
      <g>
        <rect class="cls-6" x="12.5" y="102.71" width="35" height="37.5" rx="3.74" ry="3.74"/>
        <g>
          <path class="cls-7" d="M35.65,131.28H34q-.83-1.93-1.64-3.88t-1.64-3.88H23.95l-1.62,3.88q-.82,1.95-1.65,3.88H19l4.16-9.82,4.16-9.82,4.16,9.82Zm-8.08-15.11q-.05-.21-.12-.42c0-.13-.09-.27-.12-.42a32.63,32.63,0,0,1-1.26,3.33q-.72,1.64-1.42,3.27H30q-.62-1.45-1.21-2.88T27.57,116.17Z"/>
          <path class="cls-7" d="M38.74,117.49a1.09,1.09,0,0,1,.35-.82,1.13,1.13,0,0,1,.81-.34,1.07,1.07,0,0,1,.75.34,1.09,1.09,0,0,1,.35.82,1,1,0,0,1-.35.82,1.11,1.11,0,0,1-.75.31,1.18,1.18,0,0,1-.81-.31A1,1,0,0,1,38.74,117.49Zm2,13.79H39V121.22h1.69Z"/>
        </g>
      </g>
    </g>
    <g>
      <circle class="cls-1" cx="280.1" cy="54.52" r="30"/>
      <g>
        <polygon class="cls-8" points="294.21 43.14 287.65 39.53 272.56 39.53 265.99 43.14 262.6 49.16 280.1 69.5 297.6 49.16 294.21 43.14"/>
        <g>
          <polygon class="cls-9" points="272.56 47.3 287.65 47.3 294.21 43.14 287.65 39.53 272.56 39.53 265.99 43.14 272.56 47.3"/>
          <polygon class="cls-10" points="272.56 47.3 271.35 56.1 288.85 56.1 287.65 47.3 272.56 47.3"/>
          <g>
            <polygon class="cls-11" points="262.6 49.16 280.1 69.5 271.35 56.1 262.6 49.16"/>
            <polygon class="cls-11" points="288.85 56.1 280.1 69.5 297.6 49.16 288.85 56.1"/>
          </g>
        </g>
      </g>
    </g>
    <path class="cls-12" d="M216.61,350.28H159.38a10.41,10.41,0,0,1,0-20.82h57.22a10.41,10.41,0,1,1,0,20.82Zm-57.22-16.05a5.64,5.64,0,0,0,0,11.29h57.22a5.64,5.64,0,1,0,0-11.29Z"/>
    <path class="cls-12" d="M225.61,324.69H150V297.28a332.59,332.59,0,0,0-24.59-35.88,78.67,78.67,0,0,1-17.05-49.15,79.68,79.68,0,1,1,159.36,0,78.65,78.65,0,0,1-17.06,49.16,377.22,377.22,0,0,0-25,36.56Zm-70.89-4.77h66.12V296.66l.34-.57a382.76,382.76,0,0,1,25.69-37.62,73.93,73.93,0,0,0,16-46.21,74.92,74.92,0,1,0-149.83,0,73.94,73.94,0,0,0,16,46.2,337.39,337.39,0,0,1,25.28,37l.33.56Z"/>
    <g>
      <path class="cls-12" d="M164.94,248.63l-.07-.33c-.25-1.11.06-.57.61-.57a2.47,2.47,0,0,0,.93-.18,2.31,2.31,0,0,0,1.76.75c2.54,0,3.7-2.66,4.23-4.61.24-.95-1.36-2.34-1.72-.53-.27,1.3-.8,3.19-2,3.19-.58,0-.72-.63-.76-1.05,0-.12,0-.23,0-.35h0v-7.46a1.42,1.42,0,0,0-1.6-1.3c-.41,0-.77.21-.77.5a6.38,6.38,0,0,1,.12.95v7.32c-.06.39-.24.83-.73.83-.9-.07-1.11-1.1-1.18-1.5-.28-1.43-1.34-.85-1.65-.08v0l0,.06a.78.78,0,0,0,0,.14,1,1,0,0,0,0,.21s0,0,0,0l0,.09s0,0,0,0v0a1.43,1.43,0,0,1-.59,1.9,3.87,3.87,0,0,0-1.68,3.81l15.46,70.57,5.32-1.16Z"/>
      <path class="cls-12" d="M167.24,233.25a1.79,1.79,0,0,0,1.8-1.8,1.79,1.79,0,1,0-3.58,0A1.8,1.8,0,0,0,167.24,233.25Z"/>
    </g>
    <path class="cls-12" d="M170.29,243.54c0-4.52,2.75-7.16,6-7.6v-6.68c0-.86-.3-.92-.3-1.12s.53-.33.95-.33a1.42,1.42,0,0,1,1.6,1.3V245c0,.65.3,1.36,1,1.36,1.18,0,1.71-1.89,2-3.19.12-.62.41-.89.71-.89a1.3,1.3,0,0,1,1,1.21.79.79,0,0,1,0,.21c-.5,2-1.69,4.61-4.23,4.61a2.63,2.63,0,0,1-2.25-1.15,3.64,3.64,0,0,1-2.63,1.15C171.8,248.3,170.29,246.64,170.29,243.54Zm6,1.66v-7.3c-1.92.35-3.7,1.74-3.7,5.44,0,2.13.95,3,2,3A2,2,0,0,0,176.26,245.19Z"/>
    <path class="cls-12" d="M184,244.51a2.75,2.75,0,0,0,2.75,1.83c2.31,0,3.25-1.92,3.61-3.73.27-1.33,1.92-.74,1.8.3-.21,1.8-1.39,5.38-5.74,5.38-2.69,0-5.23-2.16-5.23-5.86s2.25-6.56,4.52-6.56c1.66,0,2.66,1.21,2.66,3A6.08,6.08,0,0,1,184,244.51Zm-.35-1.63a4.31,4.31,0,0,0,2.42-4c0-.65-.24-1-.62-1-1.45,0-1.89,3.25-1.83,4.49C183.66,242.53,183.69,242.71,183.69,242.89Z"/>
    <path class="cls-12" d="M200.75,243.15c.12-.62.41-.89.71-.89a1.3,1.3,0,0,1,1,1.21.79.79,0,0,1,0,.21c-.5,2-1.69,4.61-4.23,4.61a2.62,2.62,0,0,1-2.28-1.21,3.29,3.29,0,0,1-2.54,1.21c-2.31,0-3.52-2-3.52-4.47,0-4.94,3.43-8,7-8a1.23,1.23,0,0,1,1.36,1.24c0,.5-.09.68-.38.68s-.56-.06-.86-.06c-2.25,0-4.88,1.92-4.88,6.18,0,1.54.65,2.42,1.69,2.42.8,0,1.33-.71,1.66-1.54v-4.55a6.33,6.33,0,0,0-.12-.95c0-.29.36-.5.77-.5a1.42,1.42,0,0,1,1.6,1.3V245c0,.65.3,1.36,1,1.36C200,246.35,200.48,244.45,200.75,243.15Z"/>
    <path class="cls-12" d="M214.88,243.15a3.82,3.82,0,0,0-2.26-.79h-.09a3.2,3.2,0,0,0-2.38.8c-.68.73-1,1.83-2.42,2.13a4.2,4.2,0,0,0,.15-1.06c0-2.81-1.8-3.87-3.19-6.33a5.73,5.73,0,0,0,.71-2c0-.8-.36-1.33-1.06-1.33s-2.51,1.33-2.51,2.34a2.47,2.47,0,0,0,.47,1.39c-.53,1.57-1.15,3.25-1.45,4.55-.24,1,1.39,1.83,1.71.59a28.34,28.34,0,0,1,1.15-3.58,5.92,5.92,0,0,1,2.13,4.17,2.93,2.93,0,0,1-.65,1.8c-1.48,0-4.17-1.71-4.76-1.71s-1.45,1.57,0,3a5.44,5.44,0,0,0,3.25,1.24,4.33,4.33,0,0,0,2.9-1.06,6.69,6.69,0,0,0,4-1.42c.23-.19,1.37-.36,1.09.77h0v.05L195.5,321.81l4.66,1,16.24-75.72A4.12,4.12,0,0,0,214.88,243.15Z"/>
    <rect class="cls-13" x="163.73" y="87.5" width="50" height="5" rx="1.86" ry="1.86" transform="translate(98.73 278.73) rotate(-90)"/>
    <rect class="cls-13" x="57.16" y="149.07" width="50" height="5" rx="1.86" ry="1.86" transform="translate(77.52 323.91) rotate(-150)"/>
    <rect class="cls-13" x="270.3" y="148.9" width="50" height="5" rx="1.86" ry="1.86" transform="translate(-36.14 167.94) rotate(-30)"/>
    <rect class="cls-13" x="102.08" y="103.9" width="50" height="5" rx="1.86" ry="1.86" transform="translate(98.47 269.65) rotate(-120)"/>
    <rect class="cls-13" x="225.16" y="103.89" width="50" height="5" rx="1.86" ry="1.86" transform="translate(32.95 269.84) rotate(-60)"/>
    <g>
      <circle class="cls-1" cx="97.13" cy="54.52" r="30"/>
      <g>
        <g>
          <rect class="cls-14" x="98.21" y="63.01" width="15.44" height="9.74" rx="0.95" ry="0.95" transform="translate(-16.98 94.78) rotate(-45)"/>
          <path class="cls-15" d="M104.88,67.75v7.47a1.41,1.41,0,0,1-1.41,1.41H87.9a1.24,1.24,0,0,1-1.24-1.24V39.31a1.24,1.24,0,0,1,1.24-1.24h25.49a1.24,1.24,0,0,1,1.24,1.24h0V65.47a1.41,1.41,0,0,1-1.41,1.41h-7.47A.87.87,0,0,0,104.88,67.75Z"/>
          <g>
            <line class="cls-16" x1="99" y1="43.3" x2="89.73" y2="43.3"/>
            <rect class="cls-17" x="89.73" y="42.67" width="9.26" height="1.27" rx="0.42" ry="0.42"/>
          </g>
          <g>
            <line class="cls-16" x1="106.65" y1="43.3" x2="100.64" y2="43.3"/>
            <rect class="cls-17" x="100.64" y="42.67" width="6" height="1.27" rx="0.42" ry="0.42"/>
          </g>
          <g>
            <line class="cls-16" x1="111.27" y1="43.3" x2="108.11" y2="43.3"/>
            <rect class="cls-17" x="108.11" y="42.67" width="3.17" height="1.27" rx="0.42" ry="0.42"/>
          </g>
          <g>
            <line class="cls-16" x1="93.94" y1="47.83" x2="89.73" y2="47.83"/>
            <rect class="cls-17" x="89.73" y="47.2" width="4.2" height="1.27" rx="0.42" ry="0.42"/>
          </g>
          <g>
            <line class="cls-16" x1="106.12" y1="47.83" x2="95.49" y2="47.83"/>
            <rect class="cls-17" x="95.49" y="47.2" width="10.63" height="1.27" rx="0.42" ry="0.42"/>
          </g>
          <g>
            <line class="cls-16" x1="111.27" y1="47.83" x2="107.56" y2="47.83"/>
            <rect class="cls-17" x="107.56" y="47.2" width="3.71" height="1.27" rx="0.42" ry="0.42"/>
          </g>
          <g>
            <line class="cls-16" x1="111.27" y1="56.9" x2="105.62" y2="56.9"/>
            <rect class="cls-17" x="105.62" y="56.26" width="5.65" height="1.27" rx="0.42" ry="0.42"/>
          </g>
          <g>
            <line class="cls-16" x1="107.48" y1="52.36" x2="89.73" y2="52.36"/>
            <rect class="cls-17" x="89.73" y="51.73" width="17.74" height="1.27" rx="0.42" ry="0.42"/>
          </g>
          <g>
            <line class="cls-16" x1="104.21" y1="56.9" x2="89.73" y2="56.9"/>
            <rect class="cls-17" x="89.73" y="56.26" width="14.47" height="1.27" rx="0.42" ry="0.42"/>
          </g>
          <g>
            <line class="cls-16" x1="101.23" y1="61.42" x2="89.73" y2="61.42"/>
            <rect class="cls-17" x="89.73" y="60.79" width="11.5" height="1.27" rx="0.42" ry="0.42"/>
          </g>
        </g>
        <g>
          <path class="cls-18" d="M98.73,37.86l2.65-4.81a.44.44,0,0,0-.59-.59L96,35.11a.87.87,0,0,0-.46.25L79.88,51a.64.64,0,0,0-.14.88L82,54.09a.65.65,0,0,0,.87-.14L98.48,38.32A.87.87,0,0,0,98.73,37.86Z"/>
          <path class="cls-19" d="M98.46,37.27,100.29,34a.3.3,0,0,0-.41-.41l-3.31,1.82a.59.59,0,0,0-.31.17l2,2A.59.59,0,0,0,98.46,37.27Z"/>
          <line class="cls-20" x1="94.91" y1="37.22" x2="80.81" y2="51.32"/>
          <line class="cls-20" x1="96.54" y1="37.29" x2="81.66" y2="52.17"/>
          <line class="cls-20" x1="96.62" y1="38.93" x2="82.52" y2="53.02"/>
        </g>
      </g>
    </g>
  </g>
</svg>
